<svg width="512" height="512" viewBox="0 0 512 512" fill="none" xmlns="http://www.w3.org/2000/svg">
  <!-- Background -->
  <rect width="512" height="512" rx="110" fill="#14b8a6"/>

  <!-- Chef's hat -->
  <g transform="translate(256, 256)">
    <!-- Hat base (band) -->
    <rect x="-90" y="70" width="180" height="30" rx="5" fill="#ffffff"/>

    <!-- Hat puff (main body) -->
    <ellipse cx="0" cy="40" rx="95" ry="50" fill="#ffffff"/>

    <!-- Hat top puffs -->
    <circle cx="-50" cy="0" r="35" fill="#ffffff"/>
    <circle cx="0" cy="-10" r="40" fill="#ffffff"/>
    <circle cx="50" cy="0" r="35" fill="#ffffff"/>

    <!-- Whisk handle inside hat -->
    <line x1="-30" y1="40" x2="-30" y2="75" stroke="#0d9488" stroke-width="6" stroke-linecap="round"/>
    <line x1="30" y1="40" x2="30" y2="75" stroke="#0d9488" stroke-width="6" stroke-linecap="round"/>

    <!-- Whisk wires -->
    <g transform="translate(-30, 60)">
      <line x1="-8" y1="0" x2="-12" y2="20" stroke="#0d9488" stroke-width="3" stroke-linecap="round"/>
      <line x1="0" y1="0" x2="0" y2="22" stroke="#0d9488" stroke-width="3" stroke-linecap="round"/>
      <line x1="8" y1="0" x2="12" y2="20" stroke="#0d9488" stroke-width="3" stroke-linecap="round"/>
    </g>
    <g transform="translate(30, 60)">
      <line x1="-8" y1="0" x2="-12" y2="20" stroke="#0d9488" stroke-width="3" stroke-linecap="round"/>
      <line x1="0" y1="0" x2="0" y2="22" stroke="#0d9488" stroke-width="3" stroke-linecap="round"/>
      <line x1="8" y1="0" x2="12" y2="20" stroke="#0d9488" stroke-width="3" stroke-linecap="round"/>
    </g>
  </g>
</svg>
